<svg width="301" height="71" viewBox="0 0 301 71" fill="none" xmlns="http://www.w3.org/2000/svg">
<path fill-rule="evenodd" clip-rule="evenodd" d="M7.79824 31.7187C7.72357 26.772 8.91835 25.6155 10.4549 24.4351C13.6085 22.0149 28.82 12.7045 28.82 12.7045L43.0224 4.01648L42.0938 14.3071C42.038 14.9227 41.8491 15.5187 41.5401 16.0539C41.2312 16.5892 40.8095 17.0509 40.3045 17.4071L10.8522 38.1751L10.9403 41.0213C10.9403 41.0213 7.87291 36.6625 7.79824 31.7187Z" fill="url(#paint0_linear_3271_1526)"/>
<path fill-rule="evenodd" clip-rule="evenodd" d="M13.9953 39.1967C19.548 42.8509 33.2957 49.227 38.183 51.4566C38.7361 51.7089 39.2288 52.0765 39.6281 52.5349C40.0273 52.9933 40.3239 53.5318 40.4979 54.1143L43.93 65.6141L23.9011 55.6087C23.9011 55.6087 14.0527 50.8315 10.1314 47.4041C8.18027 45.6962 7.82605 42.6757 7.78967 40.963C7.58479 31.2104 7.81647 30.2032 7.81647 30.2032C8.35738 34.2184 11.5952 37.6199 13.9953 39.1967Z" fill="url(#paint1_linear_3271_1526)"/>
<path d="M18.3993 54.0061V59.0572C18.4034 59.65 18.2528 60.2336 17.9623 60.7504C17.6719 61.2672 17.2516 61.6993 16.743 62.0039L7.0957 67.6581V44.6412C7.42312 45.8935 8.00902 47.1687 9.04393 48.0743C11.2305 49.9871 15.261 52.3183 18.3993 54.0061Z" fill="#FF6B00"/>
<path d="M18.3993 11.8889V17.6331C14.6024 20.0265 10.7758 22.4878 9.36465 23.5687C8.39388 24.3193 7.55907 25.0555 7.0957 26.7414V3.15491L16.7717 8.95938C17.2723 9.26621 17.6852 9.69711 17.9703 10.2104C18.2554 10.7236 18.4032 11.3018 18.3993 11.8889Z" fill="#FF6B00"/>
<path d="M54.6438 21.2584L54.4517 23.0357L55.5084 21.6907L67.0366 8.67342H76.0671L61.4647 24.5247L76.1151 44.0266H67.2768L56.373 28.9439L54.6438 30.6731V44.0266H47.5828V8.67342H54.6438V21.2584ZM77.4169 44.0266L93.3643 7.28043H93.7486L109.696 44.0266H101.626L91.4429 18.1842L96.4865 14.7257L84.2858 44.0266H77.4169ZM88.3207 31.2495H98.9362L101.386 37.1097H86.1591L88.3207 31.2495ZM114.849 8.67342H121.814V37.3018H138.434V44.0266H114.849V8.67342ZM141.635 44.0266L157.582 7.28043H157.966L173.914 44.0266H165.844L155.661 18.1842L160.704 14.7257L148.503 44.0266H141.635ZM152.538 31.2495H163.154L165.604 37.1097H150.377L152.538 31.2495ZM179.098 8.67342L189.426 34.1316L185.391 33.315L194.757 8.67342H203.019L186.88 45.6598L170.74 8.67342H179.098ZM219.847 8.67342C222.057 8.67342 224.026 8.96162 225.755 9.53803C227.484 10.0824 228.925 10.883 230.078 11.9397C231.263 12.9645 232.16 14.2134 232.768 15.6864C233.377 17.1274 233.681 18.7606 233.681 20.5859C233.681 22.0269 233.457 23.468 233.008 24.909C232.592 26.35 231.888 27.663 230.895 28.8478C229.934 30.0326 228.653 30.9933 227.052 31.7298C225.451 32.4344 223.466 32.7866 221.096 32.7866H216.1V44.0266H209.135V8.67342H219.847ZM221.048 26.0618C222.105 26.0618 222.985 25.8857 223.69 25.5334C224.394 25.1812 224.939 24.7329 225.323 24.1885C225.739 23.6441 226.027 23.0837 226.188 22.5073C226.38 21.8988 226.476 21.3384 226.476 20.8261C226.476 20.4418 226.412 19.9615 226.284 19.3851C226.188 18.7766 225.963 18.1682 225.611 17.5598C225.259 16.9513 224.714 16.439 223.978 16.0227C223.273 15.6064 222.313 15.3982 221.096 15.3982H216.1V26.0618H221.048ZM227.581 30.3849L236.323 44.0266H228.205L219.271 30.577L227.581 30.3849ZM242.065 8.67342H249.03V44.0266H242.065V8.67342ZM255.753 8.67342H279.578V15.3982H270.98V44.0266H264.015V15.3982H255.753V8.67342ZM286.3 8.67342H293.265V44.0266H286.3V8.67342Z" fill="#FF6B00"/>
<path d="M56.5023 60.7164L55.7785 59.6547C55.446 59.8478 55.0921 59.9979 54.7168 60.1051C54.3522 60.2017 53.9715 60.2499 53.5747 60.2499C52.9634 60.2499 52.3897 60.132 51.8535 59.896C51.328 59.6601 50.8669 59.3384 50.4701 58.9309C50.0626 58.5341 49.7409 58.0622 49.505 57.5153C49.2798 56.9684 49.1672 56.3893 49.1672 55.778C49.1672 55.1668 49.2798 54.5877 49.505 54.0408C49.7409 53.4939 50.0626 53.0113 50.4701 52.593C50.8669 52.1855 51.328 51.8638 51.8535 51.6279C52.3897 51.392 52.9634 51.274 53.5747 51.274C53.8642 51.274 54.1484 51.3062 54.4272 51.3705C54.7061 51.4241 54.9795 51.5099 55.2476 51.6279V52.6091H56.5184V50.8075C56.0787 50.5501 55.6122 50.3517 55.1189 50.2123C54.6364 50.0729 54.1216 50.0032 53.5747 50.0032C52.7811 50.0032 52.0358 50.1587 51.3388 50.4697C50.6417 50.77 50.0358 51.1775 49.521 51.6922C48.9956 52.2177 48.5827 52.8343 48.2824 53.5421C47.9822 54.2392 47.832 54.9845 47.832 55.778C47.832 56.5716 47.9822 57.3169 48.2824 58.014C48.5827 58.711 48.9956 59.3169 49.521 59.8317C50.0358 60.3572 50.6417 60.77 51.3388 61.0703C52.0358 61.3706 52.7811 61.5207 53.5747 61.5207C54.1216 61.5207 54.6364 61.451 55.1189 61.3116C55.6122 61.1615 56.0734 60.9631 56.5023 60.7164Z" fill="#000348"/>
<path d="M67.012 61.392V60.1212H65.9986V58.4644C65.9986 58.1319 66.0683 57.8317 66.2078 57.5636C66.3579 57.2955 66.5616 57.0756 66.819 56.9041C66.9906 56.7861 67.189 56.6949 67.4142 56.6306C67.6501 56.5663 67.9021 56.5341 68.1702 56.5341L68.2667 55.215C68.1059 55.215 67.9182 55.2526 67.7037 55.3276C67.5 55.4027 67.2855 55.5153 67.0603 55.6654C66.8458 55.8049 66.6367 55.9818 66.433 56.1963C66.2399 56.4 66.0791 56.636 65.9504 56.9041C65.9289 56.6467 65.9182 56.5287 65.9182 56.5502C65.9289 56.5716 65.9236 56.4537 65.9021 56.1963L65.8378 55.3598H63.6018V56.6306H64.6635V60.1212H63.441V61.392H67.012Z" fill="#000348"/>
<path d="M82.8585 61.392V60.1212H81.636V55.3598H80.5261C80.5261 55.4885 80.5153 55.6225 80.4939 55.762C80.4832 55.8906 80.4725 56.0086 80.4617 56.1158C80.3759 55.9335 80.1615 55.7405 79.8183 55.5368C79.4751 55.3223 79.0086 55.215 78.4188 55.215C77.9684 55.215 77.5448 55.3008 77.148 55.4724C76.7513 55.644 76.4081 55.8746 76.1185 56.1641C75.829 56.4537 75.5984 56.7915 75.4268 57.1775C75.266 57.5636 75.1856 57.9657 75.1856 58.384C75.1856 58.8129 75.266 59.2204 75.4268 59.6065C75.5984 59.9818 75.829 60.3143 76.1185 60.6038C76.4081 60.8934 76.7513 61.1239 77.148 61.2955C77.5448 61.4564 77.9684 61.5368 78.4188 61.5368C78.7298 61.5368 79.0086 61.4993 79.2553 61.4242C79.5019 61.3598 79.7164 61.2794 79.8987 61.1829C80.0703 61.0971 80.2044 61.0113 80.3009 60.9255C80.3974 60.8397 80.451 60.7808 80.4617 60.7486C80.4617 60.8236 80.4617 60.8773 80.4617 60.9094C80.4617 60.9416 80.4617 60.9952 80.4617 61.0703V61.392H82.8585ZM78.4188 56.518C78.6869 56.518 78.9282 56.5609 79.1427 56.6467C79.3679 56.7325 79.5663 56.8504 79.7379 57.0006C79.9094 57.1614 80.0435 57.3598 80.14 57.5957C80.2472 57.8317 80.3009 58.0891 80.3009 58.3679C80.3009 58.6467 80.2472 58.9041 80.14 59.14C80.0435 59.3759 79.9041 59.5797 79.7218 59.7513C79.5609 59.9014 79.3679 60.0194 79.1427 60.1051C78.9282 60.1909 78.6869 60.2338 78.4188 60.2338C78.1829 60.2338 77.9631 60.2017 77.7593 60.1373C77.5555 60.0623 77.3786 59.9657 77.2285 59.8478C77.014 59.6762 76.8424 59.4617 76.7137 59.2043C76.5958 58.947 76.5368 58.6681 76.5368 58.3679C76.5368 58.1105 76.5743 57.8746 76.6494 57.6601C76.7352 57.4456 76.8531 57.2579 77.0033 57.0971C77.1641 56.9148 77.3679 56.7754 77.6145 56.6789C77.8612 56.5716 78.1293 56.518 78.4188 56.518Z" fill="#000348"/>
<path d="M93.3445 61.392V60.1212H92.0737V56.6628H93.9718V55.3598H92.0737V53.1239C92.0737 52.7164 92.1381 52.3571 92.2667 52.0461C92.3954 51.7351 92.5777 51.4724 92.8137 51.2579C93.0389 51.0542 93.3016 50.8987 93.6019 50.7914C93.9129 50.6735 94.2507 50.6038 94.6153 50.5823V49.3115C94.0684 49.333 93.5536 49.4295 93.071 49.6011C92.5992 49.7619 92.1917 50.0032 91.8485 50.3249C91.5053 50.6359 91.2319 51.022 91.0281 51.4831C90.8351 51.9442 90.7386 52.4751 90.7386 53.0756V55.3598H89.7734V56.6628H90.7547V60.1212H89.7734V61.392H93.3445Z" fill="#000348"/>
<path d="M104.861 61.392V60.1212H103.655V56.6628H105.231V55.3598H103.655V51.4349H102.319V55.3598H100.968V56.6628H102.319V61.392H104.861Z" fill="#000348"/>
<path d="M118.421 57.5314L120.56 61.762C120.989 60.9041 121.418 60.0515 121.847 59.2043C122.287 58.3571 122.721 57.4992 123.15 56.6306H124.373V55.3598H120.93V56.6306H121.831C121.584 57.1024 121.348 57.5743 121.123 58.0462C120.909 58.5073 120.721 58.9791 120.56 59.4617C120.399 58.9791 120.206 58.5073 119.981 58.0462C119.756 57.5743 119.525 57.1024 119.289 56.6306H120.206V55.3598H116.635V56.6306H117.713L117.761 56.6949C117.515 57.1346 117.284 57.5582 117.07 57.9657C116.855 58.3625 116.587 58.8612 116.265 59.4617C116.158 59.14 115.965 58.7057 115.686 58.1588C115.407 57.6118 115.15 57.1024 114.914 56.6306H115.477V55.3598H112.147V56.6306H113.579C114.019 57.4885 114.453 58.3464 114.882 59.2043C115.311 60.0515 115.745 60.9041 116.185 61.762L118.421 57.5314Z" fill="#000348"/>
<path d="M136.808 60.6038C137.098 60.3143 137.323 59.9818 137.484 59.6065C137.655 59.2204 137.741 58.8076 137.741 58.3679C137.741 57.9389 137.655 57.5314 137.484 57.1453C137.323 56.7593 137.098 56.4215 136.808 56.1319C136.519 55.8531 136.175 55.6333 135.779 55.4724C135.382 55.3008 134.958 55.215 134.508 55.215C134.057 55.215 133.634 55.3008 133.237 55.4724C132.851 55.6333 132.513 55.8531 132.224 56.1319C131.934 56.4215 131.704 56.7593 131.532 57.1453C131.371 57.5314 131.291 57.9389 131.291 58.3679C131.291 58.8183 131.371 59.2311 131.532 59.6065C131.704 59.9818 131.934 60.3143 132.224 60.6038C132.513 60.8934 132.851 61.1239 133.237 61.2955C133.634 61.4564 134.057 61.5368 134.508 61.5368C134.958 61.5368 135.382 61.4564 135.779 61.2955C136.175 61.1239 136.519 60.8934 136.808 60.6038ZM133.173 59.6869C133.001 59.5261 132.867 59.333 132.771 59.1078C132.674 58.8826 132.626 58.6413 132.626 58.384C132.626 58.1266 132.674 57.8853 132.771 57.6601C132.867 57.4349 133.001 57.2365 133.173 57.0649C133.334 56.8933 133.527 56.7593 133.752 56.6628C133.977 56.5663 134.218 56.518 134.476 56.518C134.733 56.518 134.974 56.5663 135.2 56.6628C135.425 56.7593 135.623 56.8933 135.795 57.0649C135.966 57.2365 136.1 57.4349 136.197 57.6601C136.293 57.8853 136.342 58.1266 136.342 58.384C136.342 58.6413 136.293 58.8826 136.197 59.1078C136.1 59.333 135.966 59.5261 135.795 59.6869C135.623 59.8585 135.425 59.9925 135.2 60.0891C134.974 60.1856 134.733 60.2338 134.476 60.2338C134.218 60.2338 133.977 60.1856 133.752 60.0891C133.527 59.9925 133.334 59.8585 133.173 59.6869Z" fill="#000348"/>
<path d="M148.224 61.392V60.1212H147.211V58.4644C147.211 58.1319 147.281 57.8317 147.42 57.5636C147.57 57.2955 147.774 57.0756 148.031 56.9041C148.203 56.7861 148.401 56.6949 148.627 56.6306C148.862 56.5663 149.114 56.5341 149.383 56.5341L149.479 55.215C149.318 55.215 149.131 55.2526 148.916 55.3276C148.712 55.4027 148.498 55.5153 148.273 55.6654C148.058 55.8049 147.849 55.9818 147.645 56.1963C147.452 56.4 147.291 56.636 147.163 56.9041C147.141 56.6467 147.131 56.5287 147.131 56.5502C147.141 56.5716 147.136 56.4537 147.114 56.1963L147.05 55.3598H144.814V56.6306H145.876V60.1212H144.653V61.392H148.224Z" fill="#000348"/>
<path d="M156.398 61.392H159.969V60.1212H158.956V59.5582L159.744 58.8183C159.894 59.0328 160.049 59.2526 160.21 59.4778C160.371 59.6923 160.532 59.9068 160.693 60.1212H160.516V61.392H163.749V60.1212H162.253C161.985 59.7566 161.717 59.3974 161.449 59.0435C161.191 58.6789 160.934 58.3143 160.677 57.9496C160.913 57.7352 161.143 57.5153 161.368 57.2901C161.594 57.0649 161.824 56.8451 162.06 56.6306H163.057V55.3598H159.824V56.6306H160.419L158.956 57.9979V49.3276H156.559V50.5984H157.62V60.1212H156.398V61.392Z" fill="#000348"/>
<path d="M185.178 61.392V60.1212H183.344V56.3732H184.02C184.17 56.3732 184.282 56.3732 184.357 56.3732C184.443 56.3625 184.561 56.3571 184.711 56.3571L187.076 61.392H189.425V60.1212H187.912L186.111 56.2606C186.883 56.089 187.467 55.7351 187.864 55.199C188.272 54.6628 188.475 53.9925 188.475 53.1882C188.475 52.6413 188.347 52.1748 188.089 51.7887C187.832 51.4027 187.51 51.0863 187.124 50.8397C186.738 50.593 186.32 50.4161 185.87 50.3088C185.43 50.1909 185.028 50.1319 184.663 50.1319H181.285V51.4027H182.009V60.1212H181.285V61.392H185.178ZM183.344 51.4027H184.76C185.092 51.4027 185.403 51.4509 185.693 51.5475C185.993 51.644 186.25 51.7727 186.465 51.9335C186.669 52.1051 186.829 52.2981 186.947 52.5126C187.076 52.7271 187.14 52.9523 187.14 53.1882C187.14 53.392 187.103 53.6065 187.028 53.8317C186.953 54.0569 186.824 54.2606 186.642 54.4429C186.459 54.6252 186.213 54.7807 185.902 54.9094C185.601 55.0274 185.215 55.0864 184.744 55.0864H183.344V51.4027Z" fill="#000348"/>
<path d="M199.561 56.518C199.787 56.518 199.99 56.577 200.173 56.6949C200.366 56.8022 200.537 56.947 200.687 57.1293C200.183 57.3116 199.679 57.4992 199.175 57.6923C198.682 57.8746 198.183 58.0569 197.679 58.2392C197.69 58.014 197.733 57.8049 197.808 57.6118C197.894 57.4188 198.001 57.2472 198.13 57.0971C198.301 56.9148 198.505 56.7754 198.741 56.6789C198.988 56.5716 199.261 56.518 199.561 56.518ZM201.604 60.6842L200.784 59.7191C200.623 59.8907 200.441 60.0194 200.237 60.1051C200.033 60.1909 199.808 60.2338 199.561 60.2338C199.229 60.2338 198.929 60.1695 198.661 60.0408C198.403 59.9014 198.194 59.7191 198.033 59.4939C198.762 59.2258 199.486 58.9577 200.205 58.6896C200.934 58.4215 201.663 58.1534 202.393 57.8853C202.296 57.4992 202.157 57.1453 201.974 56.8236C201.792 56.4912 201.583 56.207 201.347 55.9711C201.1 55.7351 200.821 55.5528 200.51 55.4242C200.21 55.2847 199.894 55.215 199.561 55.215C199.111 55.215 198.687 55.3008 198.291 55.4724C197.905 55.6333 197.567 55.8531 197.277 56.1319C196.988 56.4215 196.757 56.7593 196.586 57.1453C196.425 57.5314 196.344 57.9389 196.344 58.3679C196.344 58.8076 196.425 59.2204 196.586 59.6065C196.757 59.9818 196.988 60.3143 197.277 60.6038C197.567 60.8934 197.905 61.1239 198.291 61.2955C198.687 61.4564 199.111 61.5368 199.561 61.5368C199.969 61.5368 200.344 61.4617 200.687 61.3116C201.031 61.1615 201.336 60.9523 201.604 60.6842Z" fill="#000348"/>
<path d="M217.05 61.392V60.1212H215.827V49.3276H213.431V50.5984H214.492V55.3116C214.492 55.3866 214.492 55.4939 214.492 55.6333C214.503 55.762 214.519 55.8692 214.541 55.955C214.519 55.9228 214.471 55.8799 214.396 55.8263C214.321 55.762 214.192 55.6815 214.01 55.585C213.827 55.4885 213.613 55.4027 213.366 55.3276C213.13 55.2526 212.878 55.215 212.61 55.215C212.16 55.215 211.736 55.3008 211.339 55.4724C210.943 55.6333 210.599 55.8585 210.31 56.148C210.02 56.4376 209.79 56.7754 209.618 57.1614C209.457 57.5368 209.377 57.9389 209.377 58.3679C209.377 58.7968 209.457 59.2043 209.618 59.5904C209.79 59.9765 210.02 60.3143 210.31 60.6038C210.599 60.8934 210.943 61.1239 211.339 61.2955C211.736 61.4564 212.16 61.5368 212.61 61.5368C212.921 61.5368 213.2 61.4993 213.447 61.4242C213.693 61.3598 213.908 61.2794 214.09 61.1829C214.262 61.0971 214.396 61.0113 214.492 60.9255C214.589 60.8397 214.642 60.7808 214.653 60.7486C214.653 60.8236 214.653 60.8773 214.653 60.9094C214.653 60.9416 214.653 60.9952 214.653 61.0703V61.392H217.05ZM212.61 56.518C212.857 56.518 213.087 56.5555 213.302 56.6306C213.516 56.7057 213.704 56.8075 213.865 56.9362C214.058 57.0971 214.208 57.3008 214.315 57.5475C214.433 57.7941 214.492 58.0676 214.492 58.3679C214.492 58.6467 214.439 58.9094 214.331 59.1561C214.224 59.4027 214.079 59.6065 213.897 59.7673C213.725 59.9175 213.532 60.0354 213.318 60.1212C213.104 60.1963 212.868 60.2338 212.61 60.2338C212.353 60.2338 212.112 60.1963 211.886 60.1212C211.672 60.0354 211.484 59.9175 211.323 59.7673C211.141 59.6065 210.996 59.4027 210.889 59.1561C210.782 58.9094 210.728 58.6467 210.728 58.3679C210.728 58.0998 210.771 57.8585 210.857 57.644C210.953 57.4188 211.077 57.2204 211.227 57.0488C211.398 56.888 211.602 56.7593 211.838 56.6628C212.074 56.5663 212.331 56.518 212.61 56.518Z" fill="#000348"/>
<path d="M227.182 56.518C227.407 56.518 227.611 56.577 227.793 56.6949C227.986 56.8022 228.158 56.947 228.308 57.1293C227.804 57.3116 227.3 57.4992 226.796 57.6923C226.303 57.8746 225.804 58.0569 225.3 58.2392C225.311 58.014 225.354 57.8049 225.429 57.6118C225.514 57.4188 225.622 57.2472 225.75 57.0971C225.922 56.9148 226.126 56.7754 226.362 56.6789C226.608 56.5716 226.882 56.518 227.182 56.518ZM229.225 60.6842L228.405 59.7191C228.244 59.8907 228.061 60.0194 227.858 60.1051C227.654 60.1909 227.429 60.2338 227.182 60.2338C226.85 60.2338 226.549 60.1695 226.281 60.0408C226.024 59.9014 225.815 59.7191 225.654 59.4939C226.383 59.2258 227.107 58.9577 227.825 58.6896C228.555 58.4215 229.284 58.1534 230.013 57.8853C229.917 57.4992 229.777 57.1453 229.595 56.8236C229.413 56.4912 229.203 56.207 228.968 55.9711C228.721 55.7351 228.442 55.5528 228.131 55.4242C227.831 55.2847 227.514 55.215 227.182 55.215C226.732 55.215 226.308 55.3008 225.911 55.4724C225.525 55.6333 225.187 55.8531 224.898 56.1319C224.608 56.4215 224.378 56.7593 224.206 57.1453C224.045 57.5314 223.965 57.9389 223.965 58.3679C223.965 58.8076 224.045 59.2204 224.206 59.6065C224.378 59.9818 224.608 60.3143 224.898 60.6038C225.187 60.8934 225.525 61.1239 225.911 61.2955C226.308 61.4564 226.732 61.5368 227.182 61.5368C227.59 61.5368 227.965 61.4617 228.308 61.3116C228.651 61.1615 228.957 60.9523 229.225 60.6842Z" fill="#000348"/>
<path d="M240.569 61.392V60.1212H239.298V56.6628H241.196V55.3598H239.298V53.1239C239.298 52.7164 239.362 52.3571 239.491 52.0461C239.62 51.7351 239.802 51.4724 240.038 51.2579C240.263 51.0542 240.526 50.8987 240.826 50.7914C241.137 50.6735 241.475 50.6038 241.839 50.5823V49.3115C241.292 49.333 240.778 49.4295 240.295 49.6011C239.823 49.7619 239.416 50.0032 239.073 50.3249C238.729 50.6359 238.456 51.022 238.252 51.4831C238.059 51.9442 237.963 52.4751 237.963 53.0756V55.3598H236.998V56.6628H237.979V60.1212H236.998V61.392H240.569Z" fill="#000348"/>
<path d="M251.763 61.392V60.1212H250.653V55.3598H248.192V56.6306H249.318V60.1212H248.192V61.392H251.763ZM250.83 53.0274C250.83 52.7807 250.745 52.577 250.573 52.4161C250.401 52.2552 250.214 52.1748 250.01 52.1748C249.796 52.1748 249.602 52.2552 249.431 52.4161C249.259 52.577 249.174 52.7807 249.174 53.0274C249.174 53.274 249.259 53.4778 249.431 53.6386C249.602 53.7888 249.796 53.8638 250.01 53.8638C250.214 53.8638 250.401 53.7888 250.573 53.6386C250.745 53.4778 250.83 53.274 250.83 53.0274Z" fill="#000348"/>
<path d="M262.251 61.392V60.1212H261.238V58.4644C261.238 58.1856 261.297 57.9282 261.415 57.6923C261.533 57.4563 261.688 57.2526 261.881 57.081C262.074 56.9094 262.294 56.7754 262.541 56.6789C262.798 56.5823 263.066 56.5341 263.345 56.5341C263.753 56.5555 264.047 56.6735 264.23 56.888C264.423 57.0917 264.53 57.3384 264.551 57.6279V60.1212H263.313V61.392H266.884V60.1212H265.887V57.0167C265.865 56.4805 265.672 56.0461 265.308 55.7137C264.943 55.3813 264.444 55.215 263.812 55.215C263.232 55.215 262.702 55.3705 262.219 55.6815C261.747 55.9818 261.404 56.3893 261.19 56.9041C261.168 56.6467 261.147 56.4161 261.125 56.2124C261.114 55.9979 261.098 55.762 261.077 55.5046V55.3598H258.841V56.6306H259.903V60.1212H258.68V61.392H262.251Z" fill="#000348"/>
<path d="M277.019 56.518C277.245 56.518 277.448 56.577 277.631 56.6949C277.824 56.8022 277.995 56.947 278.145 57.1293C277.641 57.3116 277.137 57.4992 276.633 57.6923C276.14 57.8746 275.641 58.0569 275.137 58.2392C275.148 58.014 275.191 57.8049 275.266 57.6118C275.352 57.4188 275.459 57.2472 275.588 57.0971C275.759 56.9148 275.963 56.7754 276.199 56.6789C276.446 56.5716 276.719 56.518 277.019 56.518ZM279.062 60.6842L278.242 59.7191C278.081 59.8907 277.899 60.0194 277.695 60.1051C277.491 60.1909 277.266 60.2338 277.019 60.2338C276.687 60.2338 276.387 60.1695 276.118 60.0408C275.861 59.9014 275.652 59.7191 275.491 59.4939C276.22 59.2258 276.944 58.9577 277.663 58.6896C278.392 58.4215 279.121 58.1534 279.85 57.8853C279.754 57.4992 279.614 57.1453 279.432 56.8236C279.25 56.4912 279.041 56.207 278.805 55.9711C278.558 55.7351 278.279 55.5528 277.968 55.4242C277.668 55.2847 277.352 55.215 277.019 55.215C276.569 55.215 276.145 55.3008 275.749 55.4724C275.362 55.6333 275.025 55.8531 274.735 56.1319C274.446 56.4215 274.215 56.7593 274.043 57.1453C273.883 57.5314 273.802 57.9389 273.802 58.3679C273.802 58.8076 273.883 59.2204 274.043 59.6065C274.215 59.9818 274.446 60.3143 274.735 60.6038C275.025 60.8934 275.362 61.1239 275.749 61.2955C276.145 61.4564 276.569 61.5368 277.019 61.5368C277.427 61.5368 277.802 61.4617 278.145 61.3116C278.488 61.1615 278.794 60.9523 279.062 60.6842Z" fill="#000348"/>
<path d="M294.508 61.392V60.1212H293.285V49.3276H290.888V50.5984H291.95V55.3116C291.95 55.3866 291.95 55.4939 291.95 55.6333C291.961 55.762 291.977 55.8692 291.998 55.955C291.977 55.9228 291.929 55.8799 291.854 55.8263C291.779 55.762 291.65 55.6815 291.468 55.585C291.285 55.4885 291.071 55.4027 290.824 55.3276C290.588 55.2526 290.336 55.215 290.068 55.215C289.618 55.215 289.194 55.3008 288.797 55.4724C288.401 55.6333 288.057 55.8585 287.768 56.148C287.478 56.4376 287.248 56.7754 287.076 57.1614C286.915 57.5368 286.835 57.9389 286.835 58.3679C286.835 58.7968 286.915 59.2043 287.076 59.5904C287.248 59.9765 287.478 60.3143 287.768 60.6038C288.057 60.8934 288.401 61.1239 288.797 61.2955C289.194 61.4564 289.618 61.5368 290.068 61.5368C290.379 61.5368 290.658 61.4993 290.905 61.4242C291.151 61.3598 291.366 61.2794 291.548 61.1829C291.72 61.0971 291.854 61.0113 291.95 60.9255C292.047 60.8397 292.1 60.7808 292.111 60.7486C292.111 60.8236 292.111 60.8773 292.111 60.9094C292.111 60.9416 292.111 60.9952 292.111 61.0703V61.392H294.508ZM290.068 56.518C290.315 56.518 290.545 56.5555 290.76 56.6306C290.974 56.7057 291.162 56.8075 291.323 56.9362C291.516 57.0971 291.666 57.3008 291.773 57.5475C291.891 57.7941 291.95 58.0676 291.95 58.3679C291.95 58.6467 291.897 58.9094 291.789 59.1561C291.682 59.4027 291.537 59.6065 291.355 59.7673C291.183 59.9175 290.99 60.0354 290.776 60.1212C290.561 60.1963 290.325 60.2338 290.068 60.2338C289.811 60.2338 289.569 60.1963 289.344 60.1212C289.13 60.0354 288.942 59.9175 288.781 59.7673C288.599 59.6065 288.454 59.4027 288.347 59.1561C288.24 58.9094 288.186 58.6467 288.186 58.3679C288.186 58.0998 288.229 57.8585 288.315 57.644C288.411 57.4188 288.535 57.2204 288.685 57.0488C288.856 56.888 289.06 56.7593 289.296 56.6628C289.532 56.5663 289.789 56.518 290.068 56.518Z" fill="#000348"/>
<defs>
<linearGradient id="paint0_linear_3271_1526" x1="55.0009" y1="2.59744" x2="-4.97729" y2="40.2008" gradientUnits="userSpaceOnUse">
<stop stop-color="#FF6B00"/>
<stop offset="0.35" stop-color="#FF6B00"/>
<stop offset="0.423875" stop-color="#FF6B00"/>
<stop offset="0.543245" stop-color="#FF6B00"/>
<stop offset="0.694727" stop-color="#FF6B00"/>
<stop offset="0.821958" stop-color="#C25200"/>
<stop offset="1" stop-color="#E67708"/>
<stop offset="1" stop-color="#E05E00"/>
</linearGradient>
<linearGradient id="paint1_linear_3271_1526" x1="56.2477" y1="28.8453" x2="-2.84802" y2="68.6595" gradientUnits="userSpaceOnUse">
<stop stop-color="#FF6B00"/>
<stop offset="0.35" stop-color="#FF6B00"/>
<stop offset="0.423875" stop-color="#FF6B00"/>
<stop offset="0.543245" stop-color="#FF6B00"/>
<stop offset="0.694727" stop-color="#FF6B00"/>
<stop offset="0.821958" stop-color="#C25200"/>
<stop offset="1" stop-color="#E67708"/>
<stop offset="1" stop-color="#E05E00"/>
</linearGradient>
</defs>
</svg>
